HIERARCHY
ROOT Hips
{
	OFFSET	0.00	0.00	0.00
	CHANNELS 6 Xposition Yposition Zposition Zrotation Xrotation Yrotation
	JOINT LeftUpLeg
	{
		OFFSET	 0.126116	-0.014019	-0.065224
		CHANNELS 3 Zrotation Xrotation Yrotation
		JOINT LeftLeg
		{
			OFFSET	 0.000000	 0.000000	 0.569914
			CHANNELS 3 Zrotation Xrotation Yrotation
			JOINT LeftFoot
			{
				OFFSET	 0.000000	 0.000000	 0.544423
				CHANNELS 3 Zrotation Xrotation Yrotation
				JOINT LeftToeBase
				{
					OFFSET	 0.000000	 0.000000	 0.207117
					CHANNELS 3 Zrotation Xrotation Yrotation
					End Site
					{
						OFFSET	 0.000000	 0.000000	 0.207117
					}
				}
			}
		}
	}
	JOINT RightUpLeg
	{
		OFFSET	-0.124023	-0.008373	-0.065224
		CHANNELS 3 Zrotation Xrotation Yrotation
		JOINT RightLeg
		{
			OFFSET	 0.000000	 0.000000	 0.570047
			CHANNELS 3 Zrotation Xrotation Yrotation
			JOINT RightFoot
			{
				OFFSET	 0.000000	 0.000000	 0.544354
				CHANNELS 3 Zrotation Xrotation Yrotation
				JOINT RightToeBase
				{
					OFFSET	 0.000000	 0.000000	 0.207540
					CHANNELS 3 Zrotation Xrotation Yrotation
					End Site
					{
						OFFSET	 0.000000	 0.000000	 0.207540
					}
				}
			}
		}
	}
	JOINT Spine
	{
		OFFSET	 0.000184	-0.007763	 0.117403
		CHANNELS 3 Zrotation Xrotation Yrotation
		JOINT Spine1
		{
			OFFSET	 0.000000	 0.000000	 0.137269
			CHANNELS 3 Zrotation Xrotation Yrotation
			JOINT Spine2
			{
				OFFSET	 0.000000	 0.000000	 0.156879
				CHANNELS 3 Zrotation Xrotation Yrotation
				JOINT LeftShoulder
				{
					OFFSET	 0.080501	-0.002496	 0.160144
					CHANNELS 3 Zrotation Xrotation Yrotation
					JOINT LeftArm
					{
						OFFSET	 0.000000	 0.000000	 0.164363
						CHANNELS 3 Zrotation Xrotation Yrotation
						JOINT LeftForeArm
						{
							OFFSET	 0.000000	 0.000000	 0.364576
							CHANNELS 3 Zrotation Xrotation Yrotation
							JOINT LeftHand
							{
								OFFSET	 0.000000	 0.000000	 0.360812
								CHANNELS 3 Zrotation Xrotation Yrotation
								JOINT LeftHandIndex1
								{
									OFFSET	 0.000000	 0.000000	 0.086006
									CHANNELS 3 Zrotation Xrotation Yrotation
									JOINT LeftHandIndex2
									{
										OFFSET	 0.000000	 0.000000	 0.047236
										CHANNELS 3 Zrotation Xrotation Yrotation
										JOINT LeftHandIndex3
										{
											OFFSET	-0.004284	-0.000551	 0.038166
											CHANNELS 3 Zrotation Xrotation Yrotation
											End Site
											{
												OFFSET	-0.004284	-0.000551	 0.038166
											}
										}
									}
								}
							}
						}
					}
				}
				JOINT Neck
				{
					OFFSET	 0.000000	 0.000000	 0.176489
					CHANNELS 3 Zrotation Xrotation Yrotation
					JOINT Head
					{
						OFFSET	 0.000000	-0.001747	 0.077940
						CHANNELS 3 Zrotation Xrotation Yrotation
						End Site
						{
							OFFSET	 0.000000	-0.001747	 0.077940
						}
					}
				}
				JOINT RightShoulder
				{
					OFFSET	-0.080363	 0.000306	 0.159706
					CHANNELS 3 Zrotation Xrotation Yrotation
					JOINT RightArm
					{
						OFFSET	 0.000000	 0.000000	 0.164196
						CHANNELS 3 Zrotation Xrotation Yrotation
						JOINT RightForeArm
						{
							OFFSET	 0.000000	 0.000000	 0.365611
							CHANNELS 3 Zrotation Xrotation Yrotation
							JOINT RightHand
							{
								OFFSET	 0.000000	 0.000000	 0.360648
								CHANNELS 3 Zrotation Xrotation Yrotation
								JOINT RightHandIndex1
								{
									OFFSET	 0.000000	 0.000000	 0.069977
									CHANNELS 3 Zrotation Xrotation Yrotation
									JOINT RightHandIndex2
									{
										OFFSET	 0.000000	 0.000000	 0.052305
										CHANNELS 3 Zrotation Xrotation Yrotation
										JOINT RightHandIndex3
										{
											OFFSET	 0.009002	-0.000782	 0.042196
											CHANNELS 3 Zrotation Xrotation Yrotation
											End Site
											{
												OFFSET	 0.009002	-0.000782	 0.042196
											}
										}
									}
								}
							}
						}
					}
				}
			}
		}
	}
}
MOTION
Frames:    9
Frame Time: 0.03333334
 0.011327	-0.793343	 1.163870	-6.785009	 1.226723	 0.518225	 2.186067	-33.801790	 172.369800	-5.904775	-67.886290	-6.375819	 177.019000	 86.957020	-179.838700	-2.330107	 36.859460	-0.194425	-0.133921	-35.349780	-177.490400	 1.692282	-72.351940	 4.324785	-177.774500	 85.536480	 179.433100	 2.404884	 21.384790	-0.145479	-7.290602	 13.712400	 2.354772	-11.331330	 7.066310	-1.455826	-13.171210	 3.744542	-0.443296	-134.780600	 89.519080	-133.626800	 48.937970	 61.199270	-77.217790	-13.177900	-2.291067	-19.824440	 1.387094	 2.270329	-5.360779	-3.812334	 37.924440	-2.927599	-2.450526	 36.184240	 0.754587	-1.378229	 35.397820	-2.634230	 1.610273	 2.468086	-3.128525	-2.757121	 6.781376	 3.644118	 94.014210	 85.959590	 171.391600	-54.111780	 70.538540	 73.354120	-6.484651	-12.347640	 20.999130	-28.134840	 1.242335	 9.527667	 6.437017	 35.671460	-0.771858	 2.830251	 35.756010	-7.813440	-2.350882	 35.473990	 5.254307
 0.013060	-0.791667	 1.172590	-7.403456	 2.367682	 0.400684	 2.384563	-34.365730	 172.513900	-5.238420	-66.623660	-5.495260	 176.471000	 87.460400	-179.067900	-2.339944	 35.733230	-0.166634	 0.237934	-35.834640	-177.559700	 1.501989	-70.561290	 4.344697	-177.261700	 85.892910	 179.074400	 2.405880	 20.619130	-0.160786	-7.316841	 13.706180	 2.287222	-11.288380	 6.859721	-1.458652	-13.018210	 3.540186	-0.461434	-128.386900	 89.454640	-140.025200	 47.596370	 61.167220	-76.337490	-13.120610	-2.360565	-19.234220	 1.624038	 1.328499	-5.354802	-3.812334	 37.924440	-2.927599	-2.450526	 36.184240	 0.754587	-1.378229	 35.397820	-2.634230	 1.734291	 2.314684	-3.087860	-2.630164	 6.637167	 4.015971	 94.173410	 85.999880	 171.136900	-54.041690	 70.793180	 73.154850	-6.560079	-12.234750	 20.599270	-28.186610	 0.320205	 9.521131	 6.437017	 35.671460	-0.771858	 2.830251	 35.756010	-7.813440	-2.350882	 35.473990	 5.254307
 0.014814	-0.790085	 1.180397	-7.961275	 3.403595	 0.229230	 2.576552	-34.879430	 172.732800	-4.738021	-65.520130	-4.799662	 175.677100	 87.927930	-178.075900	-2.347421	 34.808650	-0.144281	 0.593116	-36.344670	-177.500400	 1.204231	-69.168340	 4.258049	-176.668900	 86.281750	 178.563300	 2.406298	 20.235290	-0.168426	-7.338839	 13.663640	 2.264385	-11.250030	 6.669315	-1.436846	-12.875310	 3.350892	-0.477699	-124.500400	 89.405870	-143.931800	 46.390410	 61.085720	-75.570340	-13.173550	-2.372712	-18.738550	 1.676920	 0.335695	-5.351598	-3.812334	 37.924440	-2.927599	-2.450526	 36.184240	 0.754587	-1.378229	 35.397820	-2.634230	 1.842200	 2.195611	-3.026345	-2.510026	 6.502776	 4.379538	 94.287720	 86.027980	 170.955400	-54.019200	 71.070450	 72.919580	-6.492198	-12.068020	 20.245660	-28.064490	-0.655763	 9.518042	 6.437017	 35.671460	-0.771858	 2.830251	 35.756010	-7.813440	-2.350882	 35.473990	 5.254307
 0.016853	-0.788624	 1.188299	-8.603674	 4.420247	 0.004227	 2.845789	-35.289670	 173.009700	-4.394548	-64.385630	-4.204768	 174.268200	 88.419840	-176.488200	-2.354377	 33.884210	-0.122328	 1.016844	-36.942260	-177.341900	 0.621968	-68.069560	 3.963234	-175.583600	 86.862750	 177.442000	 2.406600	 19.922330	-0.174646	-7.316493	 13.657700	 2.297001	-11.170620	 6.495232	-1.393821	-12.716410	 3.153924	-0.493704	-121.689500	 89.362340	-146.761600	 45.183170	 60.966330	-74.930580	-13.363130	-2.344028	-18.246380	 1.588475	-0.860227	-5.351019	-3.812334	 37.924440	-2.927599	-2.450526	 36.184240	 0.754587	-1.378229	 35.397820	-2.634230	 1.964309	 2.082792	-2.953976	-2.387886	 6.349282	 4.753116	 94.377890	 86.051370	 170.815900	-53.998750	 71.396000	 72.624570	-6.473936	-11.892680	 19.826350	-27.970310	-1.833626	 9.517537	 6.437017	 35.671460	-0.771858	 2.830251	 35.756010	-7.813440	-2.350882	 35.473990	 5.254307
 0.018771	-0.787541	 1.195367	-9.264819	 5.249867	-0.230472	 3.197480	-35.521850	 173.319100	-4.259850	-63.327820	-3.759740	 171.793800	 88.876390	-173.877300	-2.359951	 33.091580	-0.103786	 1.427881	-37.511910	-177.148900	-0.141029	-67.170890	 3.499516	-174.048500	 87.498370	 175.767800	 2.406871	 19.590030	-0.181227	-7.253734	 13.772430	 2.397849	-11.054780	 6.400822	-1.331753	-12.561430	 2.996418	-0.504973	-119.948000	 89.328560	-148.503400	 44.098460	 60.858290	-74.507520	-13.532690	-2.335947	-17.775190	 1.553679	-2.161524	-5.352424	-3.812334	 37.924440	-2.927599	-2.450526	 36.184240	 0.754587	-1.378229	 35.397820	-2.634230	 2.089594	 1.979146	-2.894711	-2.283950	 6.235406	 5.064424	 94.443940	 86.070600	 170.718000	-53.901910	 71.722250	 72.269810	-6.535614	-11.727480	 19.357570	-27.948430	-3.116068	 9.519764	 6.437017	 35.671460	-0.771858	 2.830251	 35.756010	-7.813440	-2.350882	 35.473990	 5.254307
 0.020567	-0.786833	 1.201700	-9.895393	 5.963389	-0.454856	 3.602425	-35.605780	 173.630600	-4.210032	-62.303880	-3.366364	 166.547800	 89.300310	-168.501100	-2.364123	 32.463120	-0.089266	 1.749127	-38.006280	-176.870900	-0.961159	-66.305850	 2.917355	-172.305500	 88.016730	 173.817300	 2.407068	 19.320670	-0.186553	-7.190519	 13.968220	 2.540690	-10.943100	 6.375093	-1.252316	-12.418640	 2.885708	-0.511230	-118.860500	 89.307620	-149.598000	 43.096810	 60.802730	-74.306080	-13.565030	-2.397053	-17.272290	 1.746688	-3.632480	-5.355502	-3.812334	 37.924440	-2.927599	-2.450526	 36.184240	 0.754587	-1.378229	 35.397820	-2.634230	 2.198626	 1.882660	-2.856180	-2.191829	 6.162719	 5.281411	 94.502270	 86.090440	 170.637400	-53.730400	 72.074200	 71.848790	-6.659987	-11.549590	 18.805730	-27.985020	-4.565004	 9.525303	 6.437017	 35.671460	-0.771858	 2.830251	 35.756010	-7.813440	-2.350882	 35.473990	 5.254307
 0.021918	-0.786554	 1.207138	-10.355390	 6.573971	-0.613059	 3.974903	-35.655770	 173.876100	-4.120282	-61.374450	-2.971493	 152.832200	 89.641720	-154.633500	-2.366910	 32.021810	-0.079176	 1.893186	-38.275730	-176.675700	-1.670603	-65.444250	 2.321080	-170.425500	 88.413170	 171.706100	 2.407134	 19.233940	-0.188267	-7.187358	 14.170320	 2.634450	-10.892490	 6.416136	-1.179618	-12.313630	 2.842195	-0.511564	-118.289100	 89.301150	-150.200700	 42.245070	 60.852490	-74.366540	-13.574660	-2.494663	-16.740860	 2.083366	-5.199332	-5.360991	-3.812334	 37.924440	-2.927599	-2.450526	 36.184240	 0.754587	-1.378229	 35.397820	-2.634230	 2.260930	 1.860358	-2.802726	-2.114756	 6.105866	 5.338061	 94.563240	 86.113550	 170.558300	-53.425450	 72.461630	 71.274480	-6.819475	-11.351940	 18.186490	-28.064890	-6.107543	 9.535925	 6.437017	 35.671460	-0.771858	 2.830251	 35.756010	-7.813440	-2.350882	 35.473990	 5.254307
 0.022657	-0.786635	 1.211588	-10.566190	 7.072827	-0.668051	 4.223416	-35.760470	 173.997600	-3.949739	-60.628170	-2.604764	 112.776000	 89.825290	-114.417600	-2.368587	 31.750340	-0.072989	 1.855691	-38.267200	-176.629500	-2.123868	-64.638120	 1.849769	-168.497800	 88.688060	 169.588000	 2.407096	 19.284620	-0.187266	-7.247670	 14.299140	 2.616108	-10.914040	 6.493034	-1.147018	-12.256990	 2.851949	-0.508145	-118.106700	 89.307900	-150.440500	 41.618310	 60.965760	-74.574650	-13.651490	-2.566712	-16.229410	 2.361748	-6.668442	-5.369712	-3.812334	 37.924440	-2.927599	-2.450526	 36.184240	 0.754587	-1.378229	 35.397820	-2.634230	 2.258820	 1.894485	-2.740060	-2.050592	 6.068105	 5.266211	 94.636100	 86.140040	 170.462900	-53.000390	 72.852760	 70.571510	-6.970639	-11.146500	 17.571320	-28.159030	-7.554835	 9.551512	 6.437017	 35.671460	-0.771858	 2.830251	 35.756010	-7.813440	-2.350882	 35.473990	 5.254307
 0.023197	-0.786314	 1.216862	-10.578180	 7.701069	-0.674137	 4.408582	-36.015950	 174.065000	-3.642396	-59.731170	-2.156564	 40.446190	 89.752920	-41.877420	-2.369251	 31.639380	-0.070474	 1.598279	-38.422530	-176.586700	-2.340711	-63.666440	 1.422657	-165.108600	 88.982780	 166.020200	 2.406981	 19.435990	-0.184273	-7.393767	 14.407150	 2.529226	-11.004170	 6.618621	-1.182598	-12.216790	 2.911880	-0.500054	-118.768600	 89.343890	-149.884000	 41.008270	 61.115570	-75.017910	-13.879130	-2.613668	-15.659450	 2.533883	-8.792425	-5.390710	-3.812334	 37.924440	-2.927599	-2.450526	 36.184240	 0.754587	-1.378229	 35.397820	-2.634230	 2.194771	 1.983506	-2.694630	-1.976918	 6.045327	 5.118515	 94.673840	 86.135480	 170.380500	-52.123530	 73.480900	 69.237210	-7.139786	-10.856760	 16.717640	-28.301770	-9.650899	 9.585315	 6.437017	 35.671460	-0.771858	 2.830251	 35.756010	-7.813440	-2.350882	 35.473990	 5.254307
